HIERARCHY
ROOT Hip
{
	OFFSET 0 1.131 0.0052
	CHANNELS 6 Xposition Yposition Zposition Xrotation Yrotation Zrotation
	JOINT Abdomen
	{
		OFFSET 0 -0.047353 -0.05
		CHANNELS 3 Xrotation Zrotation Yrotation
		JOINT Chest
		{
			OFFSET 0 0.132153 0.007439
			CHANNELS 3 Xrotation Zrotation Yrotation
			JOINT Neck
			{
				OFFSET 0 0.3078 0.006161
				CHANNELS 3 Xrotation Zrotation Yrotation
				JOINT Head_comp
				{
					OFFSET 0 0.0884 0.013
					CHANNELS 3 Xrotation Yrotation Zrotation
					End Site
					{
						OFFSET -0 0.156 0.0624
					}
				}
			}
			JOINT Left_Collar
			{
				OFFSET 0.02282 0.250342 0.017193
				CHANNELS 2 Yrotation Zrotation
				JOINT Left_Shoulder
				{
					OFFSET 0.15421 0 0
					CHANNELS 3 Xrotation Yrotation Zrotation
					JOINT Left_Forearm
					{
						OFFSET 0.265212 0 0
						CHANNELS 2 Yrotation Xrotation
						JOINT Left_Hand
						{
							OFFSET 0.27571 0 0
							CHANNELS 2 Zrotation Yrotation
							JOINT L1ProxPhalanx
							{
								OFFSET 0.014142 0.001733 0.014142
								CHANNELS 3 Yrotation Zrotation Xrotation
								JOINT L1MidPhalanx
								{
									OFFSET 0.04 0 0
									CHANNELS 1 Zrotation
									JOINT L1DistPhalanx
									{
										OFFSET 0.035 0 0
										CHANNELS 1 Zrotation
										End Site
										{
											OFFSET 0.029 -0 -0
										}
									}
								}
							}
							JOINT L2ProxPhalanx
							{
								OFFSET 0.0821037 0.001578 0.0219996
								CHANNELS 2 Yrotation Zrotation
								JOINT L2MidPhalanx
								{
									OFFSET 0.04 0 0
									CHANNELS 1 Zrotation
									JOINT L2DistPhalanx
									{
										OFFSET 0.028 0 0
										CHANNELS 1 Zrotation
										End Site
										{
											OFFSET 0.02 -0 -0
										}
									}
								}
							}
							JOINT L3ProxPhalanx
							{
								OFFSET 0.083 0 0
								CHANNELS 2 Yrotation Zrotation
								JOINT L3MidPhalanx
								{
									OFFSET 0.053 0 0
									CHANNELS 1 Zrotation
									JOINT L3DistPhalanx
									{
										OFFSET 0.03 0 0
										CHANNELS 1 Zrotation
										End Site
										{
											OFFSET 0.023 -0 -0
										}
									}
								}
							}
							JOINT L4ProxPhalanx
							{
								OFFSET 0.077274 -0.000761 -0.0207055
								CHANNELS 2 Yrotation Zrotation
								JOINT L4MidPhalanx
								{
									OFFSET 0.05 0 0
									CHANNELS 1 Zrotation
									JOINT L4DistPhalanx
									{
										OFFSET 0.03 0 0
										CHANNELS 1 Zrotation
										End Site
										{
											OFFSET 0.023 -0 -0
										}
									}
								}
							}
							JOINT L5ProxPhalanx
							{
								OFFSET 0.0675499 -0.001644 -0.039
								CHANNELS 2 Yrotation Zrotation
								JOINT L5MidPhalanx
								{
									OFFSET 0.04 0 0
									CHANNELS 1 Zrotation
									JOINT L5DistPhalanx
									{
										OFFSET 0.021 0 0
										CHANNELS 1 Zrotation
										End Site
										{
											OFFSET 0.022 -0 -0
										}
									}
								}
							}
						}
					}
				}
			}
			JOINT Right_Collar
			{
				OFFSET -0.02282 0.250342 0.017193
				CHANNELS 2 Yrotation Zrotation
				JOINT Right_Shoulder
				{
					OFFSET -0.15421 0 0
					CHANNELS 3 Xrotation Yrotation Zrotation
					JOINT Right_Forearm
					{
						OFFSET -0.265212 0 0
						CHANNELS 2 Yrotation Xrotation
						JOINT Right_Hand
						{
							OFFSET -0.27571 3e-006 0
							CHANNELS 2 Zrotation Yrotation
							JOINT R1ProxPhalanx
							{
								OFFSET -0.014142 0.001733 0.014142
								CHANNELS 3 Yrotation Zrotation Xrotation
								JOINT R1MidPhalanx
								{
									OFFSET -0.04 0 0
									CHANNELS 1 Zrotation
									JOINT R1DistPhalanx
									{
										OFFSET -0.035 0 0
										CHANNELS 1 Zrotation
										End Site
										{
											OFFSET -0.029 -0 -0
										}
									}
								}
							}
							JOINT R2ProxPhalanx
							{
								OFFSET -0.0821037 0.001578 0.0219996
								CHANNELS 2 Yrotation Zrotation
								JOINT R2MidPhalanx
								{
									OFFSET -0.04 0 0
									CHANNELS 1 Zrotation
									JOINT R2DistPhalanx
									{
										OFFSET -0.028 0 0
										CHANNELS 1 Zrotation
										End Site
										{
											OFFSET -0.02 -0 -0
										}
									}
								}
							}
							JOINT R3ProxPhalanx
							{
								OFFSET -0.083 0 0
								CHANNELS 2 Yrotation Zrotation
								JOINT R3MidPhalanx
								{
									OFFSET -0.053 0 0
									CHANNELS 1 Zrotation
									JOINT R3DistPhalanx
									{
										OFFSET -0.03 0 0
										CHANNELS 1 Zrotation
										End Site
										{
											OFFSET -0.023 -0 -0
										}
									}
								}
							}
							JOINT R4ProxPhalanx
							{
								OFFSET -0.077274 -0.000761 -0.0207055
								CHANNELS 2 Yrotation Zrotation
								JOINT R4MidPhalanx
								{
									OFFSET -0.05 0 0
									CHANNELS 1 Zrotation
									JOINT R4DistPhalanx
									{
										OFFSET -0.03 0 0
										CHANNELS 1 Zrotation
										End Site
										{
											OFFSET -0.023 -0 -0
										}
									}
								}
							}
							JOINT R5ProxPhalanx
							{
								OFFSET -0.0675499 -0.001644 -0.039
								CHANNELS 2 Yrotation Zrotation
								JOINT R5MidPhalanx
								{
									OFFSET -0.04 0 0
									CHANNELS 1 Zrotation
									JOINT R5DistPhalanx
									{
										OFFSET -0.021 0 0
										CHANNELS 1 Zrotation
										End Site
										{
											OFFSET -0.022 -0 -0
										}
									}
								}
							}
						}
					}
				}
			}
		}
	}
	JOINT Left_Thigh
	{
		OFFSET 0.1118 -0.1612 -0.0442
		CHANNELS 3 Xrotation Zrotation Yrotation
		JOINT Left_Shin
		{
			OFFSET 0 -0.477856 0
			CHANNELS 1 Xrotation
			JOINT Left_Foot
			{
				OFFSET 0 -0.431952 0
				CHANNELS 2 Xrotation Zrotation
				JOINT Left_Toe
				{
					OFFSET 0 -0.0442 0.119
					CHANNELS 1 Xrotation
					End Site
					{
						OFFSET -0 -0 0.07
					}
				}
			}
		}
	}
	JOINT Right_Thigh
	{
		OFFSET -0.1118 -0.1612 -0.0442
		CHANNELS 3 Xrotation Zrotation Yrotation
		JOINT Right_Shin
		{
			OFFSET 0 -0.477856 0
			CHANNELS 1 Xrotation
			JOINT Right_Foot
			{
				OFFSET 0 -0.431952 0
				CHANNELS 2 Xrotation Zrotation
				JOINT Right_Toe
				{
					OFFSET 0 -0.0442 0.119
					CHANNELS 1 Xrotation
					End Site
					{
						OFFSET -0 -0 0.07
					}
				}
			}
		}
	}
}
MOTION
Frames: 14
Frame Time: 0.009975
-0.0962535 -0.0601771 0.04875 -8.98579e-013 5.411e-008 -5.10979e-006 0 -0 0 0 -0 0 0 -0 0 -0.712987 0.27618 -7.23076e-012 7.89358 -32.9616 9.60095 -14.1892 -31.1803 -104.081 -2.8032 -6.91233 -3.51034 -27.5605 -21.5864 106.421 -7.48048 -7.22872 0.359187 -7.00922 -0.766388 -1.05378 4.72541 -4.46271 -1.39298 -3.41729 8.71841 0.0688695 -13.7112 -8.22532 12.9011 1.57409 -20.5968 -30.2417 1.32944 15.728 -4.02134 8.25013 38.3664 69.5675 3.18176 5.2201 -6.25533 38.2568 29.0882 88.1034 14.0682 14.7198 4.46205 10.4508 14.8016 12.8881 -1.30361 9.19557 16.9627 16.7688 -5.45449 12.3883 17.3764 14.3254 -11.0065 10.5959 19.1433 16.3041 0.602708 -0.979094 -0.0102991 0.0240216 -0.626642 0.979153 0 0.614114 -0.979092 -0.010494 1.70755e-006 -0.614027 0.979153 0 
-0.0963113 -0.0601787 0.0489868 7.70874e-013 5.54372e-008 -5.10977e-006 0 -0 0 0 -0 0 0 -0 0 -0.713008 0.276341 -7.8146e-012 7.89358 -32.9616 9.60095 -14.1892 -31.1803 -104.081 -2.8032 -6.91233 -3.51034 -27.5605 -21.5864 106.421 -7.48048 -7.22872 0.359187 -7.00922 -0.766388 -1.05378 4.72541 -4.46271 -1.39298 -3.41729 8.71841 0.0688695 -13.7112 -8.22532 12.9011 1.57409 -20.5968 -30.2417 1.29481 15.4131 -2.83481 7.70834 38.8888 70.9349 3.09887 5.08412 -6.09238 38.246 29.0516 87.6163 14.4797 15.184 4.75471 10.7134 15.2825 13.1163 -1.25954 9.64323 17.4919 17.1527 -5.56191 13.0076 17.8778 14.6445 -10.8991 11.1416 19.6846 16.7678 0.617624 -0.975452 -0.0105148 0.0240216 -0.641556 0.975514 0 0.62903 -0.97545 -0.010709 2.41484e-006 -0.628941 0.975514 0 
-0.0963726 -0.0601803 0.0492257 -5.88902e-013 5.67772e-008 -5.10975e-006 0 -0 0 0 -0 0 0 -0 0 -0.713029 0.276512 -8.3913e-012 7.89358 -32.9616 9.60095 -14.1892 -31.1803 -104.081 -2.8032 -6.91233 -3.51034 -27.5605 -21.5864 106.421 -7.48048 -7.22872 0.359187 -7.00922 -0.766388 -1.05378 4.72541 -4.46271 -1.39298 -3.41729 8.71841 0.0688695 -13.7112 -8.22532 12.9011 1.57409 -20.5968 -30.2417 1.25947 15.0925 -1.62976 7.20333 39.4429 72.2532 3.0143 4.94536 -5.9261 38.2353 29.0151 87.1293 14.8913 15.6481 5.04738 10.976 15.7634 13.3444 -1.21546 10.0909 18.0211 17.5367 -5.66934 13.6269 18.3791 14.9636 -10.7917 11.6873 20.2259 17.2315 0.632672 -0.971593 -0.0107284 0.0240216 -0.656603 0.971657 0 0.644078 -0.97159 -0.0109218 2.27803e-006 -0.643988 0.971657 0 
-0.0964373 -0.0601819 0.0494664 1.52973e-013 5.8128e-008 -5.10972e-006 0 -0 0 0 -0 0 0 -0 0 -0.713051 0.276694 -8.95958e-012 7.89358 -32.9616 9.60095 -14.1892 -31.1803 -104.081 -2.8032 -6.91233 -3.51034 -27.5605 -21.5864 106.421 -7.48048 -7.22872 0.359187 -7.00922 -0.766388 -1.05378 4.72541 -4.46271 -1.39298 -3.41729 8.71841 0.0688695 -13.7112 -8.22532 12.9011 1.57409 -20.5968 -30.2417 1.22347 14.7667 -0.408047 6.73705 40.028 73.5208 2.92814 4.80401 -5.75672 38.2245 28.9786 86.6422 15.3029 16.1122 5.34004 11.2385 16.2443 13.5725 -1.17138 10.5386 18.5503 17.9206 -5.77676 14.2462 18.8805 15.2827 -10.6844 12.2329 20.7672 17.6953 0.647831 -0.967518 -0.0109394 0.0240216 -0.67176 0.967585 0 0.659238 -0.967516 -0.011132 8.70849e-007 -0.659144 0.967585 0 
-0.0965054 -0.0601836 0.0497085 5.15567e-013 5.94878e-008 -5.1097e-006 0 -0 0 0 -0 0 0 -0 0 -0.713073 0.276886 -9.51696e-012 7.89358 -32.9616 9.60095 -14.1892 -31.1803 -104.081 -2.8032 -6.91233 -3.51034 -27.5605 -21.5864 106.421 -7.48048 -7.22872 0.359187 -7.00922 -0.766388 -1.05378 4.72541 -4.46271 -1.39298 -3.41729 8.71841 0.0688695 -13.7112 -8.22532 12.9011 1.57409 -20.5968 -30.2417 1.18685 14.436 0.828354 6.3113 40.6434 74.7358 2.84051 4.66024 -5.58443 38.2138 28.9421 86.1552 15.7144 16.5764 5.6327 11.5011 16.7251 13.8007 -1.12731 10.9862 19.0795 18.3046 -5.88419 14.8655 19.3819 15.6018 -10.577 12.7786 21.3085 18.159 0.66308 -0.963233 -0.0111473 0.0240216 -0.687008 0.963302 0 0.674486 -0.96323 -0.0113391 0 -0.674391 0.963302 0 
-0.0965767 -0.0601853 0.0499517 -2.05443e-014 6.08546e-008 -5.10968e-006 0 -0 0 0 -0 0 0 -0 0 -0.713095 0.277088 -1.00619e-011 7.89358 -32.9616 9.60095 -14.1892 -31.1803 -104.081 -2.8032 -6.91233 -3.51034 -27.5605 -21.5864 106.421 -7.48048 -7.22872 0.359187 -7.00922 -0.766388 -1.05378 4.72541 -4.46271 -1.39298 -3.41729 8.71841 0.0688695 -13.7112 -8.22532 12.9011 1.57409 -20.5968 -30.2417 1.14967 14.1007 2.07728 5.92771 41.2882 75.8966 2.75151 4.51421 -5.40945 38.203 28.9056 85.6681 16.126 17.0405 5.92537 11.7637 17.206 14.0288 -1.08323 11.4339 19.6087 18.6885 -5.99161 15.4848 19.8833 15.9209 -10.4696 13.3243 21.8498 18.6227 0.678398 -0.958739 -0.0113516 0.0240216 -0.702324 0.958811 0 0.689804 -0.958737 -0.0115425 0 -0.689708 0.958811 0 
-0.0966513 -0.060187 0.0501957 1.18972e-012 6.22267e-008 -5.10966e-006 0 -0 0 0 -0 0 0 -0 0 -0.713117 0.277299 -1.05923e-011 7.89358 -32.9616 9.60095 -14.1892 -31.1803 -104.081 -2.8032 -6.91233 -3.51034 -27.5605 -21.5864 106.421 -7.48048 -7.22872 0.359187 -7.00922 -0.766388 -1.05378 4.72541 -4.46271 -1.39298 -3.41729 8.71841 0.0688695 -13.7112 -8.22532 12.9011 1.57409 -20.5968 -30.2417 1.11195 13.7611 3.33638 5.58771 41.9615 77.0018 2.66123 4.3661 -5.23197 38.1923 28.869 85.181 16.5375 17.5046 6.21803 12.0263 17.6869 14.257 -1.03916 11.8815 20.1379 19.0725 -6.09904 16.1041 20.3846 16.24 -10.3623 13.87 22.391 19.0864 0.693765 -0.954041 -0.0115519 0.0240216 -0.717691 0.954116 0 0.705172 -0.954039 -0.0117418 8.23892e-007 -0.705075 0.954116 0 
-0.0967291 -0.0601888 0.0504402 8.3311e-013 6.36024e-008 -5.10963e-006 0 -0 0 0 -0 0 0 -0 0 -0.71314 0.27752 -1.11064e-011 7.89358 -32.9616 9.60095 -14.1892 -31.1803 -104.081 -2.8032 -6.91233 -3.51034 -27.5605 -21.5864 106.421 -7.48048 -7.22872 0.359187 -7.00922 -0.766388 -1.05378 4.72541 -4.46271 -1.39298 -3.41729 8.71841 0.0688695 -13.7112 -8.22532 12.9011 1.57409 -20.5968 -30.2417 1.07374 13.4178 4.60312 5.29255 42.6621 78.0499 2.56978 4.21607 -5.05218 38.1815 28.8325 84.694 16.9491 17.9687 6.51069 12.2888 18.1678 14.4851 -0.99508 12.3292 20.6671 19.4564 -6.20647 16.7234 20.886 16.5591 -10.2549 14.4157 22.9323 19.5502 0.709163 -0.949142 -0.0117477 0.0240216 -0.733087 0.94922 0 0.720569 -0.949139 -0.0119366 1.70755e-006 -0.720472 0.94922 0 
-0.09681 -0.0601906 0.0506848 3.95845e-013 6.49798e-008 -5.10961e-006 0 -0 0 0 -0 0 0 -0 0 -0.713162 0.277751 -1.16016e-011 7.89358 -32.9616 9.60095 -14.1892 -31.1803 -104.081 -2.8032 -6.91233 -3.51034 -27.5605 -21.5864 106.421 -7.48048 -7.22872 0.359187 -7.00922 -0.766388 -1.05378 4.72541 -4.46271 -1.39298 -3.41729 8.71841 0.0688695 -13.7112 -8.22532 12.9011 1.57409 -20.5968 -30.2417 1.03508 13.0708 5.87476 5.04324 43.3891 79.0393 2.47726 4.06427 -4.87028 38.1708 28.796 84.2069 17.3606 18.4329 6.80336 12.5514 18.6487 14.7133 -0.951004 12.7769 21.1963 19.8404 -6.31389 17.3427 21.3874 16.8782 -10.1475 14.9614 23.4736 20.0139 0.724571 -0.944045 -0.0119385 0.0240216 -0.748494 0.944125 0 0.735977 -0.944042 -0.0121264 2.41484e-006 -0.735879 0.944125 0 
-0.096894 -0.0601924 0.0509293 -5.24403e-013 6.70107e-008 -5.10957e-006 0 -0 0 0 -0 0 0 -0 0 -0.713185 0.27799 -1.20761e-011 7.89358 -32.9616 9.60095 -14.1892 -31.1803 -104.081 -2.8032 -6.91233 -3.51034 -27.5605 -21.5864 106.421 -7.48048 -7.22872 0.359187 -7.00922 -0.766388 -1.05378 4.72541 -4.46271 -1.39298 -3.41729 8.71841 0.0688695 -13.7112 -8.22532 12.9011 1.57409 -20.5968 -30.2417 0.99601 12.7207 7.14837 4.84058 44.1411 79.9689 2.38376 3.91087 -4.68646 38.16 28.7595 83.7199 17.7722 18.897 7.09602 12.814 19.1296 14.9414 -0.906928 13.2245 21.7255 20.2243 -6.42132 17.962 21.8888 17.1973 -10.0402 15.5071 24.0149 20.4776 0.73997 -0.938753 -0.0121239 0.0240216 -0.763892 0.938837 0 0.751376 -0.938751 -0.0123108 1.70755e-006 -0.751277 0.938837 0 
-0.0969811 -0.0601942 0.0511733 -3.33657e-013 6.83813e-008 -5.10954e-006 0 -0 0 0 -0 0 0 -0 0 -0.713208 0.278239 -1.25277e-011 7.89358 -32.9616 9.60095 -14.1892 -31.1803 -104.081 -2.8032 -6.91233 -3.51034 -27.5605 -21.5864 106.421 -7.48048 -7.22872 0.359187 -7.00922 -0.766388 -1.05378 4.72541 -4.46271 -1.39298 -3.41729 8.71841 0.0688695 -13.7112 -8.22532 12.9011 1.57409 -20.5968 -30.2417 0.956574 12.3678 8.42087 4.68508 44.9169 80.8371 2.28938 3.75603 -4.50091 38.1492 28.723 83.2328 18.1837 19.3611 7.38868 13.0765 19.6105 15.1696 -0.862852 13.6722 22.2547 20.6083 -6.52874 18.5813 22.3901 17.5165 -9.93279 16.0528 24.5562 20.9413 0.755341 -0.933271 -0.0123035 0.0240216 -0.779262 0.933357 0 0.766747 -0.933268 -0.0124893 9.00731e-007 -0.766646 0.933357 0 
-0.0970711 -0.060196 0.0514166 -1.56046e-013 6.91052e-008 -5.10953e-006 0 -0 0 0 -0 0 0 -0 0 -0.71323 0.278496 -1.29537e-011 7.89358 -32.9616 9.60095 -14.1892 -31.1803 -104.081 -2.8032 -6.91233 -3.51034 -27.5605 -21.5864 106.421 -7.48048 -7.22872 0.359187 -7.00922 -0.766388 -1.05378 4.72541 -4.46271 -1.39298 -3.41729 8.71841 0.0688695 -13.7112 -8.22532 12.9011 1.57409 -20.5968 -30.2417 0.916812 12.0123 9.68898 4.57696 45.7152 81.643 2.19421 3.5999 -4.31382 38.1385 28.6864 82.7458 18.5953 19.8253 7.68135 13.3391 20.0914 15.3977 -0.818776 14.1198 22.7839 20.9922 -6.63617 19.2006 22.8915 17.8356 -9.82542 16.5984 25.0975 21.405 0.770665 -0.927601 -0.0124769 0.0240216 -0.794586 0.92769 0 0.782071 -0.927599 -0.0126616 1.13497e-006 -0.78197 0.92769 0 
-0.097164 -0.0601978 0.0516589 -6.4912e-013 7.04724e-008 -5.1095e-006 0 -0 0 0 -0 0 0 -0 0 -0.713253 0.278762 -1.33521e-011 7.89358 -32.9616 9.60095 -14.1892 -31.1803 -104.081 -2.8032 -6.91233 -3.51034 -27.5605 -21.5864 106.421 -7.48048 -7.22872 0.359187 -7.00922 -0.766388 -1.05378 4.72541 -4.46271 -1.39298 -3.41729 8.71841 0.0688695 -13.7112 -8.22532 12.9011 1.57409 -20.5968 -30.2417 0.876765 11.6547 10.9493 4.51613 46.5346 82.3853 2.09837 3.44266 -4.12539 38.1277 28.6499 82.2587 19.0068 20.2894 7.97401 13.6017 20.5723 15.6259 -0.7747 14.5675 23.3131 21.3761 -6.74359 19.8199 23.3929 18.1547 -9.71805 17.1441 25.6387 21.8688 0.785924 -0.921749 -0.0126437 0.0240216 -0.809844 0.92184 0 0.79733 -0.921746 -0.0128272 1.2859e-006 -0.797228 0.92184 0 
-0.0972598 -0.0601997 0.0518998 -2.417e-013 7.18328e-008 -5.10948e-006 0 -0 0 0 -0 0 0 -0 0 -0.713275 0.279037 -1.37203e-011 7.89358 -32.9616 9.60095 -14.1892 -31.1803 -104.081 -2.8032 -6.91233 -3.51034 -27.5605 -21.5864 106.421 -7.48048 -7.22872 0.359187 -7.00922 -0.766388 -1.05378 4.72541 -4.46271 -1.39298 -3.41729 8.71841 0.0688695 -13.7112 -8.22532 12.9011 1.57409 -20.5968 -30.2417 0.836476 11.2953 12.1983 4.50219 47.3735 83.0631 2.00194 3.28446 -3.93582 38.117 28.6134 81.7716 19.4184 20.7535 8.26667 13.8642 21.0532 15.854 -0.730624 15.0152 23.8423 21.7601 -6.85102 20.4392 23.8943 18.4738 -9.61068 17.6898 26.18 22.3325 0.801098 -0.915717 -0.0128035 0.0240216 -0.825017 0.915811 0 0.812504 -0.915714 -0.0129858 1.1229e-006 -0.812401 0.915811 0 
